<mxfile host="app.diagrams.net" agent="Mozilla/5.0 (Macintosh; Intel Mac OS X 10_15_7) AppleWebKit/537.36 (KHTML, like Gecko) Chrome/132.0.0.0 Safari/537.36" version="26.0.10">
  <diagram name="Page-1" id="03018318-947c-dd8e-b7a3-06fadd420f32">
    <mxGraphModel dx="1140" dy="722" grid="1" gridSize="10" guides="1" tooltips="1" connect="1" arrows="1" fold="1" page="1" pageScale="1" pageWidth="1100" pageHeight="850" background="none" math="0" shadow="0">
      <root>
        <mxCell id="0" />
        <mxCell id="1" parent="0" />
        <mxCell id="677b7b8949515195-1" value="" style="whiteSpace=wrap;html=1;rounded=0;shadow=0;labelBackgroundColor=none;strokeColor=#000000;strokeWidth=1;fillColor=none;fontFamily=Verdana;fontSize=12;fontColor=#000000;align=center;comic=1;" parent="1" vertex="1">
          <mxGeometry x="20" y="40" width="1060" height="540" as="geometry" />
        </mxCell>
        <mxCell id="677b7b8949515195-3" value="Search" style="strokeWidth=1;shadow=0;dashed=0;align=center;html=1;shape=mxgraph.mockup.forms.searchBox;strokeColor=#999999;mainText=;strokeColor2=#008cff;fontColor=#666666;fontSize=17;align=left;spacingLeft=3;rounded=0;labelBackgroundColor=none;comic=1;" parent="1" vertex="1">
          <mxGeometry x="37" y="430" width="163" height="30" as="geometry" />
        </mxCell>
        <mxCell id="677b7b8949515195-10" value="" style="whiteSpace=wrap;html=1;rounded=0;shadow=0;labelBackgroundColor=none;strokeWidth=1;fillColor=none;fontFamily=Verdana;fontSize=12;align=center;comic=1;" parent="1" vertex="1">
          <mxGeometry x="30" y="50" width="180" height="520" as="geometry" />
        </mxCell>
        <mxCell id="q4BZEvWAXVgxHDnkbYNj-4" value="" style="shape=table;startSize=0;container=1;collapsible=0;childLayout=tableLayout;strokeColor=default;fontSize=16;fontStyle=1" parent="1" vertex="1">
          <mxGeometry x="220" y="100" width="820" height="470" as="geometry" />
        </mxCell>
        <mxCell id="q4BZEvWAXVgxHDnkbYNj-5" value="" style="shape=tableRow;horizontal=0;startSize=0;swimlaneHead=0;swimlaneBody=0;strokeColor=inherit;top=0;left=0;bottom=0;right=0;collapsible=0;dropTarget=0;fillColor=none;points=[[0,0.5],[1,0.5]];portConstraint=eastwest;fontSize=16;" parent="q4BZEvWAXVgxHDnkbYNj-4" vertex="1">
          <mxGeometry width="820" height="30" as="geometry" />
        </mxCell>
        <mxCell id="q4BZEvWAXVgxHDnkbYNj-26" value="&lt;b&gt;Type&lt;/b&gt;" style="shape=partialRectangle;html=1;whiteSpace=wrap;connectable=0;strokeColor=inherit;overflow=hidden;fillColor=none;top=0;left=0;bottom=0;right=0;pointerEvents=1;fontSize=16;" parent="q4BZEvWAXVgxHDnkbYNj-5" vertex="1">
          <mxGeometry width="149" height="30" as="geometry">
            <mxRectangle width="149" height="30" as="alternateBounds" />
          </mxGeometry>
        </mxCell>
        <mxCell id="q4BZEvWAXVgxHDnkbYNj-7" value="&lt;b&gt;Manufacturer&lt;/b&gt;" style="shape=partialRectangle;html=1;whiteSpace=wrap;connectable=0;strokeColor=inherit;overflow=hidden;fillColor=none;top=0;left=0;bottom=0;right=0;pointerEvents=1;fontSize=16;" parent="q4BZEvWAXVgxHDnkbYNj-5" vertex="1">
          <mxGeometry x="149" width="169" height="30" as="geometry">
            <mxRectangle width="169" height="30" as="alternateBounds" />
          </mxGeometry>
        </mxCell>
        <mxCell id="q4BZEvWAXVgxHDnkbYNj-8" value="&lt;b&gt;Status&lt;/b&gt;" style="shape=partialRectangle;html=1;whiteSpace=wrap;connectable=0;strokeColor=inherit;overflow=hidden;fillColor=none;top=0;left=0;bottom=0;right=0;pointerEvents=1;fontSize=16;" parent="q4BZEvWAXVgxHDnkbYNj-5" vertex="1">
          <mxGeometry x="318" width="167" height="30" as="geometry">
            <mxRectangle width="167" height="30" as="alternateBounds" />
          </mxGeometry>
        </mxCell>
        <mxCell id="q4BZEvWAXVgxHDnkbYNj-17" value="&lt;b&gt;# Licenses&lt;/b&gt;" style="shape=partialRectangle;html=1;whiteSpace=wrap;connectable=0;strokeColor=inherit;overflow=hidden;fillColor=none;top=0;left=0;bottom=0;right=0;pointerEvents=1;fontSize=16;" parent="q4BZEvWAXVgxHDnkbYNj-5" vertex="1">
          <mxGeometry x="485" width="95" height="30" as="geometry">
            <mxRectangle width="95" height="30" as="alternateBounds" />
          </mxGeometry>
        </mxCell>
        <mxCell id="pzXznXApsJLnHH2ofkL3-90" value="&lt;b&gt;Exp.&lt;/b&gt;" style="shape=partialRectangle;html=1;whiteSpace=wrap;connectable=0;strokeColor=inherit;overflow=hidden;fillColor=none;top=0;left=0;bottom=0;right=0;pointerEvents=1;fontSize=16;" vertex="1" parent="q4BZEvWAXVgxHDnkbYNj-5">
          <mxGeometry x="580" width="140" height="30" as="geometry">
            <mxRectangle width="140" height="30" as="alternateBounds" />
          </mxGeometry>
        </mxCell>
        <mxCell id="q4BZEvWAXVgxHDnkbYNj-20" style="shape=partialRectangle;html=1;whiteSpace=wrap;connectable=0;strokeColor=inherit;overflow=hidden;fillColor=none;top=0;left=0;bottom=0;right=0;pointerEvents=1;fontSize=16;" parent="q4BZEvWAXVgxHDnkbYNj-5" vertex="1">
          <mxGeometry x="720" width="100" height="30" as="geometry">
            <mxRectangle width="100" height="30" as="alternateBounds" />
          </mxGeometry>
        </mxCell>
        <mxCell id="q4BZEvWAXVgxHDnkbYNj-9" value="" style="shape=tableRow;horizontal=0;startSize=0;swimlaneHead=0;swimlaneBody=0;strokeColor=inherit;top=0;left=0;bottom=0;right=0;collapsible=0;dropTarget=0;fillColor=none;points=[[0,0.5],[1,0.5]];portConstraint=eastwest;fontSize=16;" parent="q4BZEvWAXVgxHDnkbYNj-4" vertex="1">
          <mxGeometry y="30" width="820" height="40" as="geometry" />
        </mxCell>
        <mxCell id="q4BZEvWAXVgxHDnkbYNj-27" value="3Ds Max" style="shape=partialRectangle;html=1;whiteSpace=wrap;connectable=0;strokeColor=inherit;overflow=hidden;fillColor=none;top=0;left=0;bottom=0;right=0;pointerEvents=1;fontSize=16;" parent="q4BZEvWAXVgxHDnkbYNj-9" vertex="1">
          <mxGeometry width="149" height="40" as="geometry">
            <mxRectangle width="149" height="40" as="alternateBounds" />
          </mxGeometry>
        </mxCell>
        <mxCell id="q4BZEvWAXVgxHDnkbYNj-11" value="Autodesk" style="shape=partialRectangle;html=1;whiteSpace=wrap;connectable=0;strokeColor=inherit;overflow=hidden;fillColor=none;top=0;left=0;bottom=0;right=0;pointerEvents=1;fontSize=16;" parent="q4BZEvWAXVgxHDnkbYNj-9" vertex="1">
          <mxGeometry x="149" width="169" height="40" as="geometry">
            <mxRectangle width="169" height="40" as="alternateBounds" />
          </mxGeometry>
        </mxCell>
        <mxCell id="q4BZEvWAXVgxHDnkbYNj-12" value="In Use" style="shape=partialRectangle;html=1;whiteSpace=wrap;connectable=0;strokeColor=inherit;overflow=hidden;fillColor=none;top=0;left=0;bottom=0;right=0;pointerEvents=1;fontSize=16;" parent="q4BZEvWAXVgxHDnkbYNj-9" vertex="1">
          <mxGeometry x="318" width="167" height="40" as="geometry">
            <mxRectangle width="167" height="40" as="alternateBounds" />
          </mxGeometry>
        </mxCell>
        <mxCell id="q4BZEvWAXVgxHDnkbYNj-18" value="3" style="shape=partialRectangle;html=1;whiteSpace=wrap;connectable=0;strokeColor=inherit;overflow=hidden;fillColor=none;top=0;left=0;bottom=0;right=0;pointerEvents=1;fontSize=16;" parent="q4BZEvWAXVgxHDnkbYNj-9" vertex="1">
          <mxGeometry x="485" width="95" height="40" as="geometry">
            <mxRectangle width="95" height="40" as="alternateBounds" />
          </mxGeometry>
        </mxCell>
        <mxCell id="pzXznXApsJLnHH2ofkL3-91" value="23-04-2026" style="shape=partialRectangle;html=1;whiteSpace=wrap;connectable=0;strokeColor=inherit;overflow=hidden;fillColor=none;top=0;left=0;bottom=0;right=0;pointerEvents=1;fontSize=16;" vertex="1" parent="q4BZEvWAXVgxHDnkbYNj-9">
          <mxGeometry x="580" width="140" height="40" as="geometry">
            <mxRectangle width="140" height="40" as="alternateBounds" />
          </mxGeometry>
        </mxCell>
        <mxCell id="q4BZEvWAXVgxHDnkbYNj-21" value="&lt;font color=&quot;#7ea6e0&quot;&gt;Details&lt;/font&gt;" style="shape=partialRectangle;html=1;whiteSpace=wrap;connectable=0;strokeColor=inherit;overflow=hidden;fillColor=none;top=0;left=0;bottom=0;right=0;pointerEvents=1;fontSize=16;" parent="q4BZEvWAXVgxHDnkbYNj-9" vertex="1">
          <mxGeometry x="720" width="100" height="40" as="geometry">
            <mxRectangle width="100" height="40" as="alternateBounds" />
          </mxGeometry>
        </mxCell>
        <mxCell id="pzXznXApsJLnHH2ofkL3-8" style="shape=tableRow;horizontal=0;startSize=0;swimlaneHead=0;swimlaneBody=0;strokeColor=inherit;top=0;left=0;bottom=0;right=0;collapsible=0;dropTarget=0;fillColor=none;points=[[0,0.5],[1,0.5]];portConstraint=eastwest;fontSize=16;" vertex="1" parent="q4BZEvWAXVgxHDnkbYNj-4">
          <mxGeometry y="70" width="820" height="40" as="geometry" />
        </mxCell>
        <mxCell id="pzXznXApsJLnHH2ofkL3-9" value="Maya" style="shape=partialRectangle;html=1;whiteSpace=wrap;connectable=0;strokeColor=inherit;overflow=hidden;fillColor=none;top=0;left=0;bottom=0;right=0;pointerEvents=1;fontSize=16;" vertex="1" parent="pzXznXApsJLnHH2ofkL3-8">
          <mxGeometry width="149" height="40" as="geometry">
            <mxRectangle width="149" height="40" as="alternateBounds" />
          </mxGeometry>
        </mxCell>
        <mxCell id="pzXznXApsJLnHH2ofkL3-11" value="Autodesk" style="shape=partialRectangle;html=1;whiteSpace=wrap;connectable=0;strokeColor=inherit;overflow=hidden;fillColor=none;top=0;left=0;bottom=0;right=0;pointerEvents=1;fontSize=16;" vertex="1" parent="pzXznXApsJLnHH2ofkL3-8">
          <mxGeometry x="149" width="169" height="40" as="geometry">
            <mxRectangle width="169" height="40" as="alternateBounds" />
          </mxGeometry>
        </mxCell>
        <mxCell id="pzXznXApsJLnHH2ofkL3-12" value="In Use" style="shape=partialRectangle;html=1;whiteSpace=wrap;connectable=0;strokeColor=inherit;overflow=hidden;fillColor=none;top=0;left=0;bottom=0;right=0;pointerEvents=1;fontSize=16;" vertex="1" parent="pzXznXApsJLnHH2ofkL3-8">
          <mxGeometry x="318" width="167" height="40" as="geometry">
            <mxRectangle width="167" height="40" as="alternateBounds" />
          </mxGeometry>
        </mxCell>
        <mxCell id="pzXznXApsJLnHH2ofkL3-13" value="2" style="shape=partialRectangle;html=1;whiteSpace=wrap;connectable=0;strokeColor=inherit;overflow=hidden;fillColor=none;top=0;left=0;bottom=0;right=0;pointerEvents=1;fontSize=16;" vertex="1" parent="pzXznXApsJLnHH2ofkL3-8">
          <mxGeometry x="485" width="95" height="40" as="geometry">
            <mxRectangle width="95" height="40" as="alternateBounds" />
          </mxGeometry>
        </mxCell>
        <mxCell id="pzXznXApsJLnHH2ofkL3-92" value="23-04-2026" style="shape=partialRectangle;html=1;whiteSpace=wrap;connectable=0;strokeColor=inherit;overflow=hidden;fillColor=none;top=0;left=0;bottom=0;right=0;pointerEvents=1;fontSize=16;" vertex="1" parent="pzXznXApsJLnHH2ofkL3-8">
          <mxGeometry x="580" width="140" height="40" as="geometry">
            <mxRectangle width="140" height="40" as="alternateBounds" />
          </mxGeometry>
        </mxCell>
        <mxCell id="pzXznXApsJLnHH2ofkL3-14" value="&lt;span style=&quot;color: rgb(67, 102, 151);&quot;&gt;Details&lt;/span&gt;" style="shape=partialRectangle;html=1;whiteSpace=wrap;connectable=0;strokeColor=inherit;overflow=hidden;fillColor=none;top=0;left=0;bottom=0;right=0;pointerEvents=1;fontSize=16;" vertex="1" parent="pzXznXApsJLnHH2ofkL3-8">
          <mxGeometry x="720" width="100" height="40" as="geometry">
            <mxRectangle width="100" height="40" as="alternateBounds" />
          </mxGeometry>
        </mxCell>
        <mxCell id="pzXznXApsJLnHH2ofkL3-15" style="shape=tableRow;horizontal=0;startSize=0;swimlaneHead=0;swimlaneBody=0;strokeColor=inherit;top=0;left=0;bottom=0;right=0;collapsible=0;dropTarget=0;fillColor=none;points=[[0,0.5],[1,0.5]];portConstraint=eastwest;fontSize=16;" vertex="1" parent="q4BZEvWAXVgxHDnkbYNj-4">
          <mxGeometry y="110" width="820" height="40" as="geometry" />
        </mxCell>
        <mxCell id="pzXznXApsJLnHH2ofkL3-16" value="Cinema4D" style="shape=partialRectangle;html=1;whiteSpace=wrap;connectable=0;strokeColor=inherit;overflow=hidden;fillColor=none;top=0;left=0;bottom=0;right=0;pointerEvents=1;fontSize=16;" vertex="1" parent="pzXznXApsJLnHH2ofkL3-15">
          <mxGeometry width="149" height="40" as="geometry">
            <mxRectangle width="149" height="40" as="alternateBounds" />
          </mxGeometry>
        </mxCell>
        <mxCell id="pzXznXApsJLnHH2ofkL3-18" value="Maxon" style="shape=partialRectangle;html=1;whiteSpace=wrap;connectable=0;strokeColor=inherit;overflow=hidden;fillColor=none;top=0;left=0;bottom=0;right=0;pointerEvents=1;fontSize=16;" vertex="1" parent="pzXznXApsJLnHH2ofkL3-15">
          <mxGeometry x="149" width="169" height="40" as="geometry">
            <mxRectangle width="169" height="40" as="alternateBounds" />
          </mxGeometry>
        </mxCell>
        <mxCell id="pzXznXApsJLnHH2ofkL3-19" value="&lt;font style=&quot;color: light-dark(rgb(0, 0, 0), rgb(255, 102, 102));&quot;&gt;Expired&lt;/font&gt;" style="shape=partialRectangle;html=1;whiteSpace=wrap;connectable=0;strokeColor=inherit;overflow=hidden;fillColor=none;top=0;left=0;bottom=0;right=0;pointerEvents=1;fontSize=16;" vertex="1" parent="pzXznXApsJLnHH2ofkL3-15">
          <mxGeometry x="318" width="167" height="40" as="geometry">
            <mxRectangle width="167" height="40" as="alternateBounds" />
          </mxGeometry>
        </mxCell>
        <mxCell id="pzXznXApsJLnHH2ofkL3-20" value="2" style="shape=partialRectangle;html=1;whiteSpace=wrap;connectable=0;strokeColor=inherit;overflow=hidden;fillColor=none;top=0;left=0;bottom=0;right=0;pointerEvents=1;fontSize=16;" vertex="1" parent="pzXznXApsJLnHH2ofkL3-15">
          <mxGeometry x="485" width="95" height="40" as="geometry">
            <mxRectangle width="95" height="40" as="alternateBounds" />
          </mxGeometry>
        </mxCell>
        <mxCell id="pzXznXApsJLnHH2ofkL3-93" value="&lt;font style=&quot;color: light-dark(rgb(0, 0, 0), rgb(255, 102, 102));&quot;&gt;15-01-2025&lt;/font&gt;" style="shape=partialRectangle;html=1;whiteSpace=wrap;connectable=0;strokeColor=inherit;overflow=hidden;fillColor=none;top=0;left=0;bottom=0;right=0;pointerEvents=1;fontSize=16;" vertex="1" parent="pzXznXApsJLnHH2ofkL3-15">
          <mxGeometry x="580" width="140" height="40" as="geometry">
            <mxRectangle width="140" height="40" as="alternateBounds" />
          </mxGeometry>
        </mxCell>
        <mxCell id="pzXznXApsJLnHH2ofkL3-21" value="&lt;span style=&quot;color: rgb(67, 102, 151);&quot;&gt;Details&lt;/span&gt;" style="shape=partialRectangle;html=1;whiteSpace=wrap;connectable=0;strokeColor=inherit;overflow=hidden;fillColor=none;top=0;left=0;bottom=0;right=0;pointerEvents=1;fontSize=16;" vertex="1" parent="pzXznXApsJLnHH2ofkL3-15">
          <mxGeometry x="720" width="100" height="40" as="geometry">
            <mxRectangle width="100" height="40" as="alternateBounds" />
          </mxGeometry>
        </mxCell>
        <mxCell id="pzXznXApsJLnHH2ofkL3-22" style="shape=tableRow;horizontal=0;startSize=0;swimlaneHead=0;swimlaneBody=0;strokeColor=inherit;top=0;left=0;bottom=0;right=0;collapsible=0;dropTarget=0;fillColor=none;points=[[0,0.5],[1,0.5]];portConstraint=eastwest;fontSize=16;" vertex="1" parent="q4BZEvWAXVgxHDnkbYNj-4">
          <mxGeometry y="150" width="820" height="40" as="geometry" />
        </mxCell>
        <mxCell id="pzXznXApsJLnHH2ofkL3-23" value="Cinema4D" style="shape=partialRectangle;html=1;whiteSpace=wrap;connectable=0;strokeColor=inherit;overflow=hidden;fillColor=none;top=0;left=0;bottom=0;right=0;pointerEvents=1;fontSize=16;" vertex="1" parent="pzXznXApsJLnHH2ofkL3-22">
          <mxGeometry width="149" height="40" as="geometry">
            <mxRectangle width="149" height="40" as="alternateBounds" />
          </mxGeometry>
        </mxCell>
        <mxCell id="pzXznXApsJLnHH2ofkL3-25" value="Maxon" style="shape=partialRectangle;html=1;whiteSpace=wrap;connectable=0;strokeColor=inherit;overflow=hidden;fillColor=none;top=0;left=0;bottom=0;right=0;pointerEvents=1;fontSize=16;" vertex="1" parent="pzXznXApsJLnHH2ofkL3-22">
          <mxGeometry x="149" width="169" height="40" as="geometry">
            <mxRectangle width="169" height="40" as="alternateBounds" />
          </mxGeometry>
        </mxCell>
        <mxCell id="pzXznXApsJLnHH2ofkL3-26" value="In Use" style="shape=partialRectangle;html=1;whiteSpace=wrap;connectable=0;strokeColor=inherit;overflow=hidden;fillColor=none;top=0;left=0;bottom=0;right=0;pointerEvents=1;fontSize=16;" vertex="1" parent="pzXznXApsJLnHH2ofkL3-22">
          <mxGeometry x="318" width="167" height="40" as="geometry">
            <mxRectangle width="167" height="40" as="alternateBounds" />
          </mxGeometry>
        </mxCell>
        <mxCell id="pzXznXApsJLnHH2ofkL3-27" value="2" style="shape=partialRectangle;html=1;whiteSpace=wrap;connectable=0;strokeColor=inherit;overflow=hidden;fillColor=none;top=0;left=0;bottom=0;right=0;pointerEvents=1;fontSize=16;" vertex="1" parent="pzXznXApsJLnHH2ofkL3-22">
          <mxGeometry x="485" width="95" height="40" as="geometry">
            <mxRectangle width="95" height="40" as="alternateBounds" />
          </mxGeometry>
        </mxCell>
        <mxCell id="pzXznXApsJLnHH2ofkL3-94" value="15-01-2026" style="shape=partialRectangle;html=1;whiteSpace=wrap;connectable=0;strokeColor=inherit;overflow=hidden;fillColor=none;top=0;left=0;bottom=0;right=0;pointerEvents=1;fontSize=16;" vertex="1" parent="pzXznXApsJLnHH2ofkL3-22">
          <mxGeometry x="580" width="140" height="40" as="geometry">
            <mxRectangle width="140" height="40" as="alternateBounds" />
          </mxGeometry>
        </mxCell>
        <mxCell id="pzXznXApsJLnHH2ofkL3-28" value="&lt;span style=&quot;color: rgb(125, 156, 198);&quot;&gt;Details&lt;/span&gt;" style="shape=partialRectangle;html=1;whiteSpace=wrap;connectable=0;strokeColor=inherit;overflow=hidden;fillColor=none;top=0;left=0;bottom=0;right=0;pointerEvents=1;fontSize=16;" vertex="1" parent="pzXznXApsJLnHH2ofkL3-22">
          <mxGeometry x="720" width="100" height="40" as="geometry">
            <mxRectangle width="100" height="40" as="alternateBounds" />
          </mxGeometry>
        </mxCell>
        <mxCell id="pzXznXApsJLnHH2ofkL3-29" style="shape=tableRow;horizontal=0;startSize=0;swimlaneHead=0;swimlaneBody=0;strokeColor=inherit;top=0;left=0;bottom=0;right=0;collapsible=0;dropTarget=0;fillColor=none;points=[[0,0.5],[1,0.5]];portConstraint=eastwest;fontSize=16;" vertex="1" parent="q4BZEvWAXVgxHDnkbYNj-4">
          <mxGeometry y="190" width="820" height="40" as="geometry" />
        </mxCell>
        <mxCell id="pzXznXApsJLnHH2ofkL3-30" value="Houdini" style="shape=partialRectangle;html=1;whiteSpace=wrap;connectable=0;strokeColor=inherit;overflow=hidden;fillColor=none;top=0;left=0;bottom=0;right=0;pointerEvents=1;fontSize=16;" vertex="1" parent="pzXznXApsJLnHH2ofkL3-29">
          <mxGeometry width="149" height="40" as="geometry">
            <mxRectangle width="149" height="40" as="alternateBounds" />
          </mxGeometry>
        </mxCell>
        <mxCell id="pzXznXApsJLnHH2ofkL3-32" value="SideFx" style="shape=partialRectangle;html=1;whiteSpace=wrap;connectable=0;strokeColor=inherit;overflow=hidden;fillColor=none;top=0;left=0;bottom=0;right=0;pointerEvents=1;fontSize=16;" vertex="1" parent="pzXznXApsJLnHH2ofkL3-29">
          <mxGeometry x="149" width="169" height="40" as="geometry">
            <mxRectangle width="169" height="40" as="alternateBounds" />
          </mxGeometry>
        </mxCell>
        <mxCell id="pzXznXApsJLnHH2ofkL3-33" value="&lt;font style=&quot;color: light-dark(rgb(0, 0, 0), rgb(151, 208, 119));&quot;&gt;Free&lt;/font&gt;" style="shape=partialRectangle;html=1;whiteSpace=wrap;connectable=0;strokeColor=inherit;overflow=hidden;fillColor=none;top=0;left=0;bottom=0;right=0;pointerEvents=1;fontSize=16;" vertex="1" parent="pzXznXApsJLnHH2ofkL3-29">
          <mxGeometry x="318" width="167" height="40" as="geometry">
            <mxRectangle width="167" height="40" as="alternateBounds" />
          </mxGeometry>
        </mxCell>
        <mxCell id="pzXznXApsJLnHH2ofkL3-34" value="3" style="shape=partialRectangle;html=1;whiteSpace=wrap;connectable=0;strokeColor=inherit;overflow=hidden;fillColor=none;top=0;left=0;bottom=0;right=0;pointerEvents=1;fontSize=16;" vertex="1" parent="pzXznXApsJLnHH2ofkL3-29">
          <mxGeometry x="485" width="95" height="40" as="geometry">
            <mxRectangle width="95" height="40" as="alternateBounds" />
          </mxGeometry>
        </mxCell>
        <mxCell id="pzXznXApsJLnHH2ofkL3-95" value="15-01-2026" style="shape=partialRectangle;html=1;whiteSpace=wrap;connectable=0;strokeColor=inherit;overflow=hidden;fillColor=none;top=0;left=0;bottom=0;right=0;pointerEvents=1;fontSize=16;" vertex="1" parent="pzXznXApsJLnHH2ofkL3-29">
          <mxGeometry x="580" width="140" height="40" as="geometry">
            <mxRectangle width="140" height="40" as="alternateBounds" />
          </mxGeometry>
        </mxCell>
        <mxCell id="pzXznXApsJLnHH2ofkL3-35" value="&lt;span style=&quot;color: rgb(82, 109, 145);&quot;&gt;Details&lt;/span&gt;" style="shape=partialRectangle;html=1;whiteSpace=wrap;connectable=0;strokeColor=inherit;overflow=hidden;fillColor=none;top=0;left=0;bottom=0;right=0;pointerEvents=1;fontSize=16;" vertex="1" parent="pzXznXApsJLnHH2ofkL3-29">
          <mxGeometry x="720" width="100" height="40" as="geometry">
            <mxRectangle width="100" height="40" as="alternateBounds" />
          </mxGeometry>
        </mxCell>
        <mxCell id="pzXznXApsJLnHH2ofkL3-36" style="shape=tableRow;horizontal=0;startSize=0;swimlaneHead=0;swimlaneBody=0;strokeColor=inherit;top=0;left=0;bottom=0;right=0;collapsible=0;dropTarget=0;fillColor=none;points=[[0,0.5],[1,0.5]];portConstraint=eastwest;fontSize=16;" vertex="1" parent="q4BZEvWAXVgxHDnkbYNj-4">
          <mxGeometry y="230" width="820" height="40" as="geometry" />
        </mxCell>
        <mxCell id="pzXznXApsJLnHH2ofkL3-37" value="..." style="shape=partialRectangle;html=1;whiteSpace=wrap;connectable=0;strokeColor=inherit;overflow=hidden;fillColor=none;top=0;left=0;bottom=0;right=0;pointerEvents=1;fontSize=16;" vertex="1" parent="pzXznXApsJLnHH2ofkL3-36">
          <mxGeometry width="149" height="40" as="geometry">
            <mxRectangle width="149" height="40" as="alternateBounds" />
          </mxGeometry>
        </mxCell>
        <mxCell id="pzXznXApsJLnHH2ofkL3-39" style="shape=partialRectangle;html=1;whiteSpace=wrap;connectable=0;strokeColor=inherit;overflow=hidden;fillColor=none;top=0;left=0;bottom=0;right=0;pointerEvents=1;fontSize=16;" vertex="1" parent="pzXznXApsJLnHH2ofkL3-36">
          <mxGeometry x="149" width="169" height="40" as="geometry">
            <mxRectangle width="169" height="40" as="alternateBounds" />
          </mxGeometry>
        </mxCell>
        <mxCell id="pzXznXApsJLnHH2ofkL3-40" style="shape=partialRectangle;html=1;whiteSpace=wrap;connectable=0;strokeColor=inherit;overflow=hidden;fillColor=none;top=0;left=0;bottom=0;right=0;pointerEvents=1;fontSize=16;" vertex="1" parent="pzXznXApsJLnHH2ofkL3-36">
          <mxGeometry x="318" width="167" height="40" as="geometry">
            <mxRectangle width="167" height="40" as="alternateBounds" />
          </mxGeometry>
        </mxCell>
        <mxCell id="pzXznXApsJLnHH2ofkL3-41" style="shape=partialRectangle;html=1;whiteSpace=wrap;connectable=0;strokeColor=inherit;overflow=hidden;fillColor=none;top=0;left=0;bottom=0;right=0;pointerEvents=1;fontSize=16;" vertex="1" parent="pzXznXApsJLnHH2ofkL3-36">
          <mxGeometry x="485" width="95" height="40" as="geometry">
            <mxRectangle width="95" height="40" as="alternateBounds" />
          </mxGeometry>
        </mxCell>
        <mxCell id="pzXznXApsJLnHH2ofkL3-96" style="shape=partialRectangle;html=1;whiteSpace=wrap;connectable=0;strokeColor=inherit;overflow=hidden;fillColor=none;top=0;left=0;bottom=0;right=0;pointerEvents=1;fontSize=16;" vertex="1" parent="pzXznXApsJLnHH2ofkL3-36">
          <mxGeometry x="580" width="140" height="40" as="geometry">
            <mxRectangle width="140" height="40" as="alternateBounds" />
          </mxGeometry>
        </mxCell>
        <mxCell id="pzXznXApsJLnHH2ofkL3-42" style="shape=partialRectangle;html=1;whiteSpace=wrap;connectable=0;strokeColor=inherit;overflow=hidden;fillColor=none;top=0;left=0;bottom=0;right=0;pointerEvents=1;fontSize=16;" vertex="1" parent="pzXznXApsJLnHH2ofkL3-36">
          <mxGeometry x="720" width="100" height="40" as="geometry">
            <mxRectangle width="100" height="40" as="alternateBounds" />
          </mxGeometry>
        </mxCell>
        <mxCell id="pzXznXApsJLnHH2ofkL3-43" style="shape=tableRow;horizontal=0;startSize=0;swimlaneHead=0;swimlaneBody=0;strokeColor=inherit;top=0;left=0;bottom=0;right=0;collapsible=0;dropTarget=0;fillColor=none;points=[[0,0.5],[1,0.5]];portConstraint=eastwest;fontSize=16;" vertex="1" parent="q4BZEvWAXVgxHDnkbYNj-4">
          <mxGeometry y="270" width="820" height="40" as="geometry" />
        </mxCell>
        <mxCell id="pzXznXApsJLnHH2ofkL3-44" value="..." style="shape=partialRectangle;html=1;whiteSpace=wrap;connectable=0;strokeColor=inherit;overflow=hidden;fillColor=none;top=0;left=0;bottom=0;right=0;pointerEvents=1;fontSize=16;" vertex="1" parent="pzXznXApsJLnHH2ofkL3-43">
          <mxGeometry width="149" height="40" as="geometry">
            <mxRectangle width="149" height="40" as="alternateBounds" />
          </mxGeometry>
        </mxCell>
        <mxCell id="pzXznXApsJLnHH2ofkL3-46" style="shape=partialRectangle;html=1;whiteSpace=wrap;connectable=0;strokeColor=inherit;overflow=hidden;fillColor=none;top=0;left=0;bottom=0;right=0;pointerEvents=1;fontSize=16;" vertex="1" parent="pzXznXApsJLnHH2ofkL3-43">
          <mxGeometry x="149" width="169" height="40" as="geometry">
            <mxRectangle width="169" height="40" as="alternateBounds" />
          </mxGeometry>
        </mxCell>
        <mxCell id="pzXznXApsJLnHH2ofkL3-47" style="shape=partialRectangle;html=1;whiteSpace=wrap;connectable=0;strokeColor=inherit;overflow=hidden;fillColor=none;top=0;left=0;bottom=0;right=0;pointerEvents=1;fontSize=16;" vertex="1" parent="pzXznXApsJLnHH2ofkL3-43">
          <mxGeometry x="318" width="167" height="40" as="geometry">
            <mxRectangle width="167" height="40" as="alternateBounds" />
          </mxGeometry>
        </mxCell>
        <mxCell id="pzXznXApsJLnHH2ofkL3-48" style="shape=partialRectangle;html=1;whiteSpace=wrap;connectable=0;strokeColor=inherit;overflow=hidden;fillColor=none;top=0;left=0;bottom=0;right=0;pointerEvents=1;fontSize=16;" vertex="1" parent="pzXznXApsJLnHH2ofkL3-43">
          <mxGeometry x="485" width="95" height="40" as="geometry">
            <mxRectangle width="95" height="40" as="alternateBounds" />
          </mxGeometry>
        </mxCell>
        <mxCell id="pzXznXApsJLnHH2ofkL3-97" style="shape=partialRectangle;html=1;whiteSpace=wrap;connectable=0;strokeColor=inherit;overflow=hidden;fillColor=none;top=0;left=0;bottom=0;right=0;pointerEvents=1;fontSize=16;" vertex="1" parent="pzXznXApsJLnHH2ofkL3-43">
          <mxGeometry x="580" width="140" height="40" as="geometry">
            <mxRectangle width="140" height="40" as="alternateBounds" />
          </mxGeometry>
        </mxCell>
        <mxCell id="pzXznXApsJLnHH2ofkL3-49" style="shape=partialRectangle;html=1;whiteSpace=wrap;connectable=0;strokeColor=inherit;overflow=hidden;fillColor=none;top=0;left=0;bottom=0;right=0;pointerEvents=1;fontSize=16;" vertex="1" parent="pzXznXApsJLnHH2ofkL3-43">
          <mxGeometry x="720" width="100" height="40" as="geometry">
            <mxRectangle width="100" height="40" as="alternateBounds" />
          </mxGeometry>
        </mxCell>
        <mxCell id="pzXznXApsJLnHH2ofkL3-50" style="shape=tableRow;horizontal=0;startSize=0;swimlaneHead=0;swimlaneBody=0;strokeColor=inherit;top=0;left=0;bottom=0;right=0;collapsible=0;dropTarget=0;fillColor=none;points=[[0,0.5],[1,0.5]];portConstraint=eastwest;fontSize=16;" vertex="1" parent="q4BZEvWAXVgxHDnkbYNj-4">
          <mxGeometry y="310" width="820" height="40" as="geometry" />
        </mxCell>
        <mxCell id="pzXznXApsJLnHH2ofkL3-51" value="..." style="shape=partialRectangle;html=1;whiteSpace=wrap;connectable=0;strokeColor=inherit;overflow=hidden;fillColor=none;top=0;left=0;bottom=0;right=0;pointerEvents=1;fontSize=16;" vertex="1" parent="pzXznXApsJLnHH2ofkL3-50">
          <mxGeometry width="149" height="40" as="geometry">
            <mxRectangle width="149" height="40" as="alternateBounds" />
          </mxGeometry>
        </mxCell>
        <mxCell id="pzXznXApsJLnHH2ofkL3-53" style="shape=partialRectangle;html=1;whiteSpace=wrap;connectable=0;strokeColor=inherit;overflow=hidden;fillColor=none;top=0;left=0;bottom=0;right=0;pointerEvents=1;fontSize=16;" vertex="1" parent="pzXznXApsJLnHH2ofkL3-50">
          <mxGeometry x="149" width="169" height="40" as="geometry">
            <mxRectangle width="169" height="40" as="alternateBounds" />
          </mxGeometry>
        </mxCell>
        <mxCell id="pzXznXApsJLnHH2ofkL3-54" style="shape=partialRectangle;html=1;whiteSpace=wrap;connectable=0;strokeColor=inherit;overflow=hidden;fillColor=none;top=0;left=0;bottom=0;right=0;pointerEvents=1;fontSize=16;" vertex="1" parent="pzXznXApsJLnHH2ofkL3-50">
          <mxGeometry x="318" width="167" height="40" as="geometry">
            <mxRectangle width="167" height="40" as="alternateBounds" />
          </mxGeometry>
        </mxCell>
        <mxCell id="pzXznXApsJLnHH2ofkL3-55" style="shape=partialRectangle;html=1;whiteSpace=wrap;connectable=0;strokeColor=inherit;overflow=hidden;fillColor=none;top=0;left=0;bottom=0;right=0;pointerEvents=1;fontSize=16;" vertex="1" parent="pzXznXApsJLnHH2ofkL3-50">
          <mxGeometry x="485" width="95" height="40" as="geometry">
            <mxRectangle width="95" height="40" as="alternateBounds" />
          </mxGeometry>
        </mxCell>
        <mxCell id="pzXznXApsJLnHH2ofkL3-98" style="shape=partialRectangle;html=1;whiteSpace=wrap;connectable=0;strokeColor=inherit;overflow=hidden;fillColor=none;top=0;left=0;bottom=0;right=0;pointerEvents=1;fontSize=16;" vertex="1" parent="pzXznXApsJLnHH2ofkL3-50">
          <mxGeometry x="580" width="140" height="40" as="geometry">
            <mxRectangle width="140" height="40" as="alternateBounds" />
          </mxGeometry>
        </mxCell>
        <mxCell id="pzXznXApsJLnHH2ofkL3-56" style="shape=partialRectangle;html=1;whiteSpace=wrap;connectable=0;strokeColor=inherit;overflow=hidden;fillColor=none;top=0;left=0;bottom=0;right=0;pointerEvents=1;fontSize=16;" vertex="1" parent="pzXznXApsJLnHH2ofkL3-50">
          <mxGeometry x="720" width="100" height="40" as="geometry">
            <mxRectangle width="100" height="40" as="alternateBounds" />
          </mxGeometry>
        </mxCell>
        <mxCell id="pzXznXApsJLnHH2ofkL3-57" style="shape=tableRow;horizontal=0;startSize=0;swimlaneHead=0;swimlaneBody=0;strokeColor=inherit;top=0;left=0;bottom=0;right=0;collapsible=0;dropTarget=0;fillColor=none;points=[[0,0.5],[1,0.5]];portConstraint=eastwest;fontSize=16;" vertex="1" parent="q4BZEvWAXVgxHDnkbYNj-4">
          <mxGeometry y="350" width="820" height="40" as="geometry" />
        </mxCell>
        <mxCell id="pzXznXApsJLnHH2ofkL3-58" value="..." style="shape=partialRectangle;html=1;whiteSpace=wrap;connectable=0;strokeColor=inherit;overflow=hidden;fillColor=none;top=0;left=0;bottom=0;right=0;pointerEvents=1;fontSize=16;" vertex="1" parent="pzXznXApsJLnHH2ofkL3-57">
          <mxGeometry width="149" height="40" as="geometry">
            <mxRectangle width="149" height="40" as="alternateBounds" />
          </mxGeometry>
        </mxCell>
        <mxCell id="pzXznXApsJLnHH2ofkL3-60" style="shape=partialRectangle;html=1;whiteSpace=wrap;connectable=0;strokeColor=inherit;overflow=hidden;fillColor=none;top=0;left=0;bottom=0;right=0;pointerEvents=1;fontSize=16;" vertex="1" parent="pzXznXApsJLnHH2ofkL3-57">
          <mxGeometry x="149" width="169" height="40" as="geometry">
            <mxRectangle width="169" height="40" as="alternateBounds" />
          </mxGeometry>
        </mxCell>
        <mxCell id="pzXznXApsJLnHH2ofkL3-61" style="shape=partialRectangle;html=1;whiteSpace=wrap;connectable=0;strokeColor=inherit;overflow=hidden;fillColor=none;top=0;left=0;bottom=0;right=0;pointerEvents=1;fontSize=16;" vertex="1" parent="pzXznXApsJLnHH2ofkL3-57">
          <mxGeometry x="318" width="167" height="40" as="geometry">
            <mxRectangle width="167" height="40" as="alternateBounds" />
          </mxGeometry>
        </mxCell>
        <mxCell id="pzXznXApsJLnHH2ofkL3-62" style="shape=partialRectangle;html=1;whiteSpace=wrap;connectable=0;strokeColor=inherit;overflow=hidden;fillColor=none;top=0;left=0;bottom=0;right=0;pointerEvents=1;fontSize=16;" vertex="1" parent="pzXznXApsJLnHH2ofkL3-57">
          <mxGeometry x="485" width="95" height="40" as="geometry">
            <mxRectangle width="95" height="40" as="alternateBounds" />
          </mxGeometry>
        </mxCell>
        <mxCell id="pzXznXApsJLnHH2ofkL3-99" style="shape=partialRectangle;html=1;whiteSpace=wrap;connectable=0;strokeColor=inherit;overflow=hidden;fillColor=none;top=0;left=0;bottom=0;right=0;pointerEvents=1;fontSize=16;" vertex="1" parent="pzXznXApsJLnHH2ofkL3-57">
          <mxGeometry x="580" width="140" height="40" as="geometry">
            <mxRectangle width="140" height="40" as="alternateBounds" />
          </mxGeometry>
        </mxCell>
        <mxCell id="pzXznXApsJLnHH2ofkL3-63" style="shape=partialRectangle;html=1;whiteSpace=wrap;connectable=0;strokeColor=inherit;overflow=hidden;fillColor=none;top=0;left=0;bottom=0;right=0;pointerEvents=1;fontSize=16;" vertex="1" parent="pzXznXApsJLnHH2ofkL3-57">
          <mxGeometry x="720" width="100" height="40" as="geometry">
            <mxRectangle width="100" height="40" as="alternateBounds" />
          </mxGeometry>
        </mxCell>
        <mxCell id="pzXznXApsJLnHH2ofkL3-64" style="shape=tableRow;horizontal=0;startSize=0;swimlaneHead=0;swimlaneBody=0;strokeColor=inherit;top=0;left=0;bottom=0;right=0;collapsible=0;dropTarget=0;fillColor=none;points=[[0,0.5],[1,0.5]];portConstraint=eastwest;fontSize=16;" vertex="1" parent="q4BZEvWAXVgxHDnkbYNj-4">
          <mxGeometry y="390" width="820" height="40" as="geometry" />
        </mxCell>
        <mxCell id="pzXznXApsJLnHH2ofkL3-65" value="..." style="shape=partialRectangle;html=1;whiteSpace=wrap;connectable=0;strokeColor=inherit;overflow=hidden;fillColor=none;top=0;left=0;bottom=0;right=0;pointerEvents=1;fontSize=16;" vertex="1" parent="pzXznXApsJLnHH2ofkL3-64">
          <mxGeometry width="149" height="40" as="geometry">
            <mxRectangle width="149" height="40" as="alternateBounds" />
          </mxGeometry>
        </mxCell>
        <mxCell id="pzXznXApsJLnHH2ofkL3-67" style="shape=partialRectangle;html=1;whiteSpace=wrap;connectable=0;strokeColor=inherit;overflow=hidden;fillColor=none;top=0;left=0;bottom=0;right=0;pointerEvents=1;fontSize=16;" vertex="1" parent="pzXznXApsJLnHH2ofkL3-64">
          <mxGeometry x="149" width="169" height="40" as="geometry">
            <mxRectangle width="169" height="40" as="alternateBounds" />
          </mxGeometry>
        </mxCell>
        <mxCell id="pzXznXApsJLnHH2ofkL3-68" style="shape=partialRectangle;html=1;whiteSpace=wrap;connectable=0;strokeColor=inherit;overflow=hidden;fillColor=none;top=0;left=0;bottom=0;right=0;pointerEvents=1;fontSize=16;" vertex="1" parent="pzXznXApsJLnHH2ofkL3-64">
          <mxGeometry x="318" width="167" height="40" as="geometry">
            <mxRectangle width="167" height="40" as="alternateBounds" />
          </mxGeometry>
        </mxCell>
        <mxCell id="pzXznXApsJLnHH2ofkL3-69" style="shape=partialRectangle;html=1;whiteSpace=wrap;connectable=0;strokeColor=inherit;overflow=hidden;fillColor=none;top=0;left=0;bottom=0;right=0;pointerEvents=1;fontSize=16;" vertex="1" parent="pzXznXApsJLnHH2ofkL3-64">
          <mxGeometry x="485" width="95" height="40" as="geometry">
            <mxRectangle width="95" height="40" as="alternateBounds" />
          </mxGeometry>
        </mxCell>
        <mxCell id="pzXznXApsJLnHH2ofkL3-100" style="shape=partialRectangle;html=1;whiteSpace=wrap;connectable=0;strokeColor=inherit;overflow=hidden;fillColor=none;top=0;left=0;bottom=0;right=0;pointerEvents=1;fontSize=16;" vertex="1" parent="pzXznXApsJLnHH2ofkL3-64">
          <mxGeometry x="580" width="140" height="40" as="geometry">
            <mxRectangle width="140" height="40" as="alternateBounds" />
          </mxGeometry>
        </mxCell>
        <mxCell id="pzXznXApsJLnHH2ofkL3-70" style="shape=partialRectangle;html=1;whiteSpace=wrap;connectable=0;strokeColor=inherit;overflow=hidden;fillColor=none;top=0;left=0;bottom=0;right=0;pointerEvents=1;fontSize=16;" vertex="1" parent="pzXznXApsJLnHH2ofkL3-64">
          <mxGeometry x="720" width="100" height="40" as="geometry">
            <mxRectangle width="100" height="40" as="alternateBounds" />
          </mxGeometry>
        </mxCell>
        <mxCell id="pzXznXApsJLnHH2ofkL3-71" style="shape=tableRow;horizontal=0;startSize=0;swimlaneHead=0;swimlaneBody=0;strokeColor=inherit;top=0;left=0;bottom=0;right=0;collapsible=0;dropTarget=0;fillColor=none;points=[[0,0.5],[1,0.5]];portConstraint=eastwest;fontSize=16;" vertex="1" parent="q4BZEvWAXVgxHDnkbYNj-4">
          <mxGeometry y="430" width="820" height="40" as="geometry" />
        </mxCell>
        <mxCell id="pzXznXApsJLnHH2ofkL3-72" value="..." style="shape=partialRectangle;html=1;whiteSpace=wrap;connectable=0;strokeColor=inherit;overflow=hidden;fillColor=none;top=0;left=0;bottom=0;right=0;pointerEvents=1;fontSize=16;" vertex="1" parent="pzXznXApsJLnHH2ofkL3-71">
          <mxGeometry width="149" height="40" as="geometry">
            <mxRectangle width="149" height="40" as="alternateBounds" />
          </mxGeometry>
        </mxCell>
        <mxCell id="pzXznXApsJLnHH2ofkL3-74" style="shape=partialRectangle;html=1;whiteSpace=wrap;connectable=0;strokeColor=inherit;overflow=hidden;fillColor=none;top=0;left=0;bottom=0;right=0;pointerEvents=1;fontSize=16;" vertex="1" parent="pzXznXApsJLnHH2ofkL3-71">
          <mxGeometry x="149" width="169" height="40" as="geometry">
            <mxRectangle width="169" height="40" as="alternateBounds" />
          </mxGeometry>
        </mxCell>
        <mxCell id="pzXznXApsJLnHH2ofkL3-75" style="shape=partialRectangle;html=1;whiteSpace=wrap;connectable=0;strokeColor=inherit;overflow=hidden;fillColor=none;top=0;left=0;bottom=0;right=0;pointerEvents=1;fontSize=16;" vertex="1" parent="pzXznXApsJLnHH2ofkL3-71">
          <mxGeometry x="318" width="167" height="40" as="geometry">
            <mxRectangle width="167" height="40" as="alternateBounds" />
          </mxGeometry>
        </mxCell>
        <mxCell id="pzXznXApsJLnHH2ofkL3-76" style="shape=partialRectangle;html=1;whiteSpace=wrap;connectable=0;strokeColor=inherit;overflow=hidden;fillColor=none;top=0;left=0;bottom=0;right=0;pointerEvents=1;fontSize=16;" vertex="1" parent="pzXznXApsJLnHH2ofkL3-71">
          <mxGeometry x="485" width="95" height="40" as="geometry">
            <mxRectangle width="95" height="40" as="alternateBounds" />
          </mxGeometry>
        </mxCell>
        <mxCell id="pzXznXApsJLnHH2ofkL3-101" style="shape=partialRectangle;html=1;whiteSpace=wrap;connectable=0;strokeColor=inherit;overflow=hidden;fillColor=none;top=0;left=0;bottom=0;right=0;pointerEvents=1;fontSize=16;" vertex="1" parent="pzXznXApsJLnHH2ofkL3-71">
          <mxGeometry x="580" width="140" height="40" as="geometry">
            <mxRectangle width="140" height="40" as="alternateBounds" />
          </mxGeometry>
        </mxCell>
        <mxCell id="pzXznXApsJLnHH2ofkL3-77" style="shape=partialRectangle;html=1;whiteSpace=wrap;connectable=0;strokeColor=inherit;overflow=hidden;fillColor=none;top=0;left=0;bottom=0;right=0;pointerEvents=1;fontSize=16;" vertex="1" parent="pzXznXApsJLnHH2ofkL3-71">
          <mxGeometry x="720" width="100" height="40" as="geometry">
            <mxRectangle width="100" height="40" as="alternateBounds" />
          </mxGeometry>
        </mxCell>
        <mxCell id="q4BZEvWAXVgxHDnkbYNj-112" value="Any" style="html=1;shadow=0;dashed=0;shape=mxgraph.bootstrap.rrect;rSize=5;strokeColor=none;strokeWidth=1;fillColor=#6C767D;fontColor=#ffffff;whiteSpace=wrap;align=right;verticalAlign=middle;fontStyle=0;fontSize=14;spacingRight=20;" parent="1" vertex="1">
          <mxGeometry x="40" y="170" width="120" height="30" as="geometry" />
        </mxCell>
        <mxCell id="q4BZEvWAXVgxHDnkbYNj-113" value="" style="shape=triangle;direction=south;fillColor=#ffffff;strokeColor=none;perimeter=none;" parent="q4BZEvWAXVgxHDnkbYNj-112" vertex="1">
          <mxGeometry x="1" y="0.5" width="10" height="5" relative="1" as="geometry">
            <mxPoint x="-17" y="-2.5" as="offset" />
          </mxGeometry>
        </mxCell>
        <mxCell id="q4BZEvWAXVgxHDnkbYNj-114" value="Type" style="text;html=1;points=[];align=left;verticalAlign=top;spacingTop=-4;fontSize=14;fontFamily=Verdana" parent="1" vertex="1">
          <mxGeometry x="40" y="150" width="40" height="20" as="geometry" />
        </mxCell>
        <mxCell id="q4BZEvWAXVgxHDnkbYNj-115" value="Any" style="html=1;shadow=0;dashed=0;shape=mxgraph.bootstrap.rrect;rSize=5;strokeColor=none;strokeWidth=1;fillColor=#6C767D;fontColor=#ffffff;whiteSpace=wrap;align=right;verticalAlign=middle;fontStyle=0;fontSize=14;spacingRight=20;" parent="1" vertex="1">
          <mxGeometry x="40" y="235" width="120" height="30" as="geometry" />
        </mxCell>
        <mxCell id="q4BZEvWAXVgxHDnkbYNj-116" value="" style="shape=triangle;direction=south;fillColor=#ffffff;strokeColor=none;perimeter=none;" parent="q4BZEvWAXVgxHDnkbYNj-115" vertex="1">
          <mxGeometry x="1" y="0.5" width="10" height="5" relative="1" as="geometry">
            <mxPoint x="-17" y="-2.5" as="offset" />
          </mxGeometry>
        </mxCell>
        <mxCell id="q4BZEvWAXVgxHDnkbYNj-117" value="Manufacturer" style="text;html=1;points=[];align=left;verticalAlign=top;spacingTop=-4;fontSize=14;fontFamily=Verdana" parent="1" vertex="1">
          <mxGeometry x="40" y="215" width="40" height="20" as="geometry" />
        </mxCell>
        <mxCell id="q4BZEvWAXVgxHDnkbYNj-118" value="Status" style="text;html=1;points=[];align=left;verticalAlign=top;spacingTop=-4;fontSize=14;fontFamily=Verdana" parent="1" vertex="1">
          <mxGeometry x="40" y="280" width="40" height="20" as="geometry" />
        </mxCell>
        <mxCell id="q4BZEvWAXVgxHDnkbYNj-119" value="Any" style="html=1;shadow=0;dashed=0;shape=mxgraph.bootstrap.rrect;rSize=5;strokeColor=none;strokeWidth=1;fillColor=#6C767D;fontColor=#ffffff;whiteSpace=wrap;align=right;verticalAlign=middle;fontStyle=0;fontSize=14;spacingRight=20;" parent="1" vertex="1">
          <mxGeometry x="40" y="300" width="120" height="30" as="geometry" />
        </mxCell>
        <mxCell id="q4BZEvWAXVgxHDnkbYNj-120" value="" style="shape=triangle;direction=south;fillColor=#ffffff;strokeColor=none;perimeter=none;" parent="q4BZEvWAXVgxHDnkbYNj-119" vertex="1">
          <mxGeometry x="1" y="0.5" width="10" height="5" relative="1" as="geometry">
            <mxPoint x="-17" y="-2.5" as="offset" />
          </mxGeometry>
        </mxCell>
        <mxCell id="q4BZEvWAXVgxHDnkbYNj-125" value="&lt;font style=&quot;font-size: 14px;&quot;&gt;Hardware Assets&lt;/font&gt;" style="text;html=1;align=center;verticalAlign=middle;whiteSpace=wrap;rounded=0;" parent="1" vertex="1">
          <mxGeometry x="220" y="55" width="160" height="30" as="geometry" />
        </mxCell>
        <mxCell id="q4BZEvWAXVgxHDnkbYNj-126" value="&lt;font style=&quot;font-size: 14px;&quot;&gt;Software Assets&lt;/font&gt;" style="text;html=1;align=center;verticalAlign=middle;whiteSpace=wrap;rounded=0;fillColor=#dae8fc;strokeColor=#6c8ebf;" parent="1" vertex="1">
          <mxGeometry x="400" y="55" width="160" height="30" as="geometry" />
        </mxCell>
        <mxCell id="q4BZEvWAXVgxHDnkbYNj-127" value="Order" style="text;html=1;points=[];align=left;verticalAlign=top;spacingTop=-4;fontSize=14;fontFamily=Verdana" parent="1" vertex="1">
          <mxGeometry x="40" y="60" width="40" height="20" as="geometry" />
        </mxCell>
        <mxCell id="q4BZEvWAXVgxHDnkbYNj-128" value="Manufacturer" style="html=1;shadow=0;dashed=0;shape=mxgraph.bootstrap.rrect;rSize=5;strokeColor=none;strokeWidth=1;fillColor=#6C767D;fontColor=#ffffff;whiteSpace=wrap;align=right;verticalAlign=middle;fontStyle=0;fontSize=14;spacingRight=20;" parent="1" vertex="1">
          <mxGeometry x="40" y="80" width="120" height="30" as="geometry" />
        </mxCell>
        <mxCell id="q4BZEvWAXVgxHDnkbYNj-129" value="" style="shape=triangle;direction=south;fillColor=#ffffff;strokeColor=none;perimeter=none;" parent="q4BZEvWAXVgxHDnkbYNj-128" vertex="1">
          <mxGeometry x="1" y="0.5" width="10" height="5" relative="1" as="geometry">
            <mxPoint x="-17" y="-2.5" as="offset" />
          </mxGeometry>
        </mxCell>
        <mxCell id="q4BZEvWAXVgxHDnkbYNj-130" value="Apply" style="rounded=1;fillColor=#0057D8;strokeColor=none;html=1;whiteSpace=wrap;fontColor=#ffffff;align=center;verticalAlign=middle;fontStyle=0;fontSize=12;sketch=0;" parent="1" vertex="1">
          <mxGeometry x="74" y="490" width="86" height="33" as="geometry" />
        </mxCell>
        <mxCell id="q4BZEvWAXVgxHDnkbYNj-131" value="Add" style="rounded=1;fillColor=#0057D8;strokeColor=none;html=1;whiteSpace=wrap;fontColor=#ffffff;align=center;verticalAlign=middle;fontStyle=0;fontSize=12;sketch=0;" parent="1" vertex="1">
          <mxGeometry x="930" y="53.5" width="86" height="33" as="geometry" />
        </mxCell>
        <mxCell id="q4BZEvWAXVgxHDnkbYNj-132" value="" style="verticalLabelPosition=bottom;shadow=0;dashed=0;align=center;html=1;verticalAlign=top;strokeWidth=1;shape=mxgraph.mockup.navigation.scrollBar;strokeColor=#999999;barPos=67.652;fillColor2=#99ddff;strokeColor2=none;direction=north;" parent="1" vertex="1">
          <mxGeometry x="1050" y="60" width="20" height="510" as="geometry" />
        </mxCell>
        <mxCell id="zX-MKMj06BqSPDNbv460-1" value="&lt;font style=&quot;font-size: 18px;&quot;&gt;companyitassets/assets/software&lt;/font&gt;" style="html=1;strokeWidth=1;shadow=0;dashed=0;shape=mxgraph.ios7ui.url;fillColor=#e0e0e0;strokeColor=#c0c0c0;buttonText=;strokeColor2=#222222;fontColor=#222222;fontSize=8;spacingTop=2;align=center;whiteSpace=wrap;" parent="1" vertex="1">
          <mxGeometry x="20" width="1050" height="32.5" as="geometry" />
        </mxCell>
      </root>
    </mxGraphModel>
  </diagram>
</mxfile>
